<!DOCTYPE svg PUBLIC "-//W3C//DTD SVG 1.1//EN" "http://www.w3.org/Graphics/SVG/1.1/DTD/svg11.dtd">
<!-- Uploaded to: SVG Repo, www.svgrepo.com, Transformed by: SVG Repo Mixer Tools -->
<svg width="256px" height="256px" viewBox="-0.03 0 20.053 20.053" xmlns="http://www.w3.org/2000/svg" fill="#000000">
<g id="SVGRepo_bgCarrier" stroke-width="0"/>
<g id="SVGRepo_tracerCarrier" stroke-linecap="round" stroke-linejoin="round"/>
<g id="SVGRepo_iconCarrier"> <g id="boat" transform="translate(-2 -1.974)"> <path id="secondary" fill="#2ca9bc" d="M9,7.74a5.49,5.49,0,0,1,2.45-4.57h0a1,1,0,0,1,1.1,0h0A5.49,5.49,0,0,1,15,7.74v8.52a5.49,5.49,0,0,1-2.45,4.57h0a1,1,0,0,1-1.1,0h0A5.49,5.49,0,0,1,9,16.26Z"/> <path id="primary" d="M9,7.74a5.49,5.49,0,0,1,2.45-4.57h0a1,1,0,0,1,1.1,0h0A5.49,5.49,0,0,1,15,7.74v8.52a5.49,5.49,0,0,1-2.45,4.57h0a1,1,0,0,1-1.1,0h0A5.49,5.49,0,0,1,9,16.26ZM5,12H19m2,1H20a1,1,0,0,1-1-1h0a1,1,0,0,1,1-1h1ZM3,11H4a1,1,0,0,1,1,1H5a1,1,0,0,1-1,1H3Z" fill="none" stroke="#000000" stroke-linecap="round" stroke-linejoin="round" stroke-width="2"/> </g> </g>
</svg>